<?xml version="1.0" encoding="utf-8"?>
<!-- Generator: Adobe Illustrator 21.1.0, SVG Export Plug-In . SVG Version: 6.00 Build 0)  -->
<svg version="1.1" id="Layer_1" xmlns="http://www.w3.org/2000/svg" xmlns:xlink="http://www.w3.org/1999/xlink" x="0px" y="0px"
	 viewBox="0 0 298 345" style="enable-background:new 0 0 298 345;" xml:space="preserve">
<style type="text/css">
	.st0{fill:#DEDEDE;}
	.st1{fill:#D22856;}
</style>
<g>
	<path class="st0" d="M264.5,102.1l5.4-5.4c7.7-7.7,9.1-18.9,3.1-24.9c-6-6-17.2-4.6-24.9,3.1l-5.4,5.4c-20.9-17-46.6-28.4-74.7-32
		v-9.6h7.6c10.9,0,19.9-8.7,19.9-19.4S186.5,0,175.6,0h-53.3c-10.9,0-19.8,8.7-19.8,19.4s8.9,19.4,19.8,19.4h7.6v9.6
		C56.7,57.7,0,120.3,0,196.1C0,278.3,66.7,345,149,345s149-66.7,149-148.9C298,160.4,285.5,127.7,264.5,102.1z M149,306.2
		c-60.9,0-110.1-49.3-110.1-110.1S88.1,85.9,149,85.9S259.1,135.2,259.1,196S209.9,306.2,149,306.2z"/>
	<path class="st1" d="M149,69C79.1,69,22.4,125.7,22.4,195.5S79.1,322,149,322s126.6-56.6,126.6-126.5C275.6,125.6,218.9,69,149,69z
		 M149,306.2c-60.9,0-110.2-49.3-110.2-110.1S88.1,85.9,149,85.9S259.2,135.2,259.2,196S209.9,306.2,149,306.2z"/>
	<g>
		<path class="st1" d="M212.3,202.6c0.1,1.2,0.5,1.7,1.7,1.7c2.5,0,5,0,7.4,0c1.6,0,2.1,0.5,2.1,2.2c0,4.2,0,8.4,0,12.6
			c0,1.8-0.4,2.2-2.1,2.2c-2.4,0-4.8,0-7.2,0c-1.7,0-2,0.3-2,2.2c0,5.5,0,11,0,16.5c0,2-0.2,2.2-2,2.2c-5.1,0-10.2,0-15.2,0
			c-2,0-2.3-0.2-2.2-2.5c0-5.5,0-10.9,0-16.3c0-1.5-0.5-2.1-2-2.1c-3.3,0-26.8,0-35.4,0c-1.8,0-2.2-0.4-2.2-2.4c0-3.3,0.1-6.5,0-9.7
			c-0.2-2.7,0.9-4.8,2.2-6.9c1.8-2.7,36-57.2,38-60.4c0.6-1,1.6-1.1,2.5-1.1c3.9,0,13.8,0,14.8,0c1.1,0,1.6,0.4,1.7,1.7
			C212.3,142.9,212.2,202.2,212.3,202.6z M190.7,204.3c1.3,0,1.8-0.5,1.9-1.8c0-32.1,0-37.2,0-34.4c0-0.7-0.6,0.4-0.8,0.6
			c-1.3,2.4-18.1,30.5-19.7,33.2c-0.3,0.5-1.7,2.4,0,2.3L190.7,204.3z"/>
		<path class="st1" d="M83,242.1c-1.9,0-2.1-0.3-2.1-2.3c0-3.6,0-7.1,0-10.7c0-1.5,0.4-2.6,1.5-3.7c4.8-5.1,33.2-37,34.9-39.1
			c2.6-3.2,4.6-6.9,5.8-11c0.8-2.5,1.1-5.2,0.7-7.8c-0.2-1.9-0.5-3.7-1.5-5.5c-1.2-2-2.8-3.3-4.9-4c-3.7-1.3-7.3-0.9-10.9,0.1
			c-2.5,0.7-11.5,6.7-13.6,8.3c-1.1,0.8-1.8,0.7-2.7-0.4c-2.1-2.6-4.1-5.3-6.2-8c-0.7-0.9-1.4-1.8-2.1-2.7c-1-1.2-1.1-1.9,0.1-3
			c1.7-1.5,3.5-2.9,5.2-4.3c4.7-3.8,10-6.4,15.7-7.7c4.6-1.1,9.3-1.5,14-1.1c3.1,0.2,6.2,0.8,9.3,1.9c5.3,1.9,9.6,5.2,13,9.9
			c1.6,2.2,2.6,4.7,3.4,7.4c1,3.5,1.5,7,1.1,10.5c-0.3,3.2-1.1,6.3-1.9,9.4c-0.6,2.6-1.9,5-3.2,7.3c-1.9,3.5-4.1,6.8-6.7,9.7
			c-1.6,1.9-11.4,12.3-14.8,15.6c-3,3-10,10.3-10.5,11c-0.2,0.3,0.4,1.8,0.8,1.8c1.8,0,25.9,0,36.1,0c2.7,0,3,0.4,2.9,3.4
			c-0.1,4.1,0,8.2,0,12.3c0,2.1-0.2,2.5-2.1,2.5C134.2,242.1,93.2,242.1,83,242.1z"/>
	</g>
</g>
</svg>
